<svg width="40" height="40" viewBox="0 0 40 40" fill="none" xmlns="http://www.w3.org/2000/svg">
<g clip-path="url(#clip0_20005153_1522)">
<path d="M38.4374 34.1364C39.3004 34.1364 39.9999 33.4369 39.9999 32.5742C39.9999 31.7111 39.3004 31.0117 38.4374 31.0117H34.1411V26.7154C34.1411 25.8527 33.4417 25.1532 32.5789 25.1532C31.7159 25.1532 31.0164 25.8527 31.0164 26.7154V31.0117H26.7202C25.8574 31.0117 25.158 31.7111 25.158 32.5742C25.158 33.4369 25.8574 34.1364 26.7202 34.1364H31.0164V38.4326C31.0164 39.2957 31.7159 39.9951 32.5789 39.9951C33.4417 39.9951 34.1411 39.2957 34.1411 38.4326V34.1364H38.4374Z" fill="#D946EF"/>
<path d="M23.1612 26.2186C22.1831 25.5362 21.1379 24.9802 20.0448 24.5554C21.4989 23.2337 22.4636 21.3821 22.6314 19.3094C24.8366 17.1607 27.7273 15.9827 30.826 15.9827C33.2451 15.9827 35.5678 16.7111 37.5436 18.089C38.2516 18.5828 39.2251 18.4094 39.7188 17.7014C40.2123 16.9937 40.039 16.0199 39.3313 15.5264C38.3532 14.8441 37.3076 14.2883 36.2145 13.8632C37.8191 12.4048 38.828 10.3018 38.828 7.96784C38.828 3.57422 35.2538 0 30.8602 0C26.4669 0 22.8927 3.57422 22.8927 7.96784C22.8927 10.2924 23.8933 12.3877 25.487 13.8455C25.2688 13.9294 25.0518 14.0183 24.8369 14.1129C23.8592 14.5432 22.94 15.0723 22.0852 15.6937C20.9063 12.7649 18.0361 10.6921 14.6905 10.6921C10.2971 10.6921 6.72261 14.2664 6.72261 18.6597C6.72261 20.9778 7.71779 23.0673 9.30288 24.5245C5.0649 26.1124 1.62862 29.5227 0.22969 33.8721C-0.234178 35.3143 0.0114888 36.8439 0.903823 38.0686C1.79616 39.2929 3.17677 39.9951 4.69167 39.9951H18.2839C19.1466 39.9951 19.8461 39.2957 19.8461 38.4326C19.8461 37.5699 19.1466 36.8704 18.2839 36.8704H4.69167C4.1866 36.8704 3.7264 36.6364 3.42885 36.228C3.1313 35.8197 3.04952 35.3098 3.20393 34.8288C4.74812 30.0278 9.4576 26.6748 14.6563 26.6748C17.0751 26.6748 19.3981 27.4033 21.3738 28.7811C22.0815 29.2749 23.0553 29.1013 23.5491 28.3936C24.0426 27.6859 23.8692 26.712 23.1612 26.2186ZM30.8602 3.1247C33.5308 3.1247 35.7033 5.29724 35.7033 7.96784C35.7033 10.6381 33.5308 12.811 30.8602 12.811C28.1899 12.811 26.0171 10.6381 26.0171 7.96784C26.0171 5.29724 28.1899 3.1247 30.8602 3.1247ZM14.6905 13.8165C17.361 13.8165 19.5336 15.9894 19.5336 18.6597C19.5336 21.3303 17.361 23.5028 14.6905 23.5028C12.0199 23.5028 9.84731 21.3303 9.84731 18.6597C9.84731 15.9894 12.0199 13.8165 14.6905 13.8165Z" fill="#6366F1"/>
</g>
<defs>
<clipPath id="clip0_20005153_1522">
<rect width="40" height="40" fill="white"/>
</clipPath>
</defs>
</svg>
