<svg width="40" height="40" viewBox="0 0 40 40" fill="none" xmlns="http://www.w3.org/2000/svg">
<path d="M4.95272 13.2449C5.491 10.2442 6.86178 7.52381 8.91709 5.37795C9.51405 4.75475 9.4928 3.76569 8.86952 3.16881C8.24624 2.5717 7.25717 2.59319 6.66038 3.21639C4.17811 5.80795 2.52397 9.08498 1.87686 12.6932C1.72452 13.5426 2.28952 14.3547 3.13889 14.507C3.23233 14.5237 3.32499 14.5318 3.41663 14.5318C4.15874 14.5318 4.81717 14.0009 4.95272 13.2449Z" fill="#D946EF"/>
<path d="M35.5883 26.234C35.5016 26.2001 34.2829 25.7089 33.3871 24.5822C32.8501 23.9067 31.8672 23.7946 31.1916 24.3316C30.5161 24.8687 30.4039 25.8516 30.9409 26.5271C31.7487 27.543 32.688 28.2187 33.4052 28.6337C33.2853 29.3067 33.0321 30.0588 32.5891 30.6971C31.8934 31.7 30.9107 32.1875 29.5852 32.1875H10.5243C8.10773 32.1875 7.02945 30.1627 6.71766 28.6255C7.17883 28.3585 7.73242 27.9855 8.28727 27.4862C10.0568 25.8942 10.9922 23.7918 10.9922 21.4062V15.9375C10.9922 11.0069 14.989 6.9418 19.9018 6.87586C19.9154 6.8757 19.9286 6.87383 19.9421 6.87328C19.9537 6.87352 19.9649 6.875 19.9766 6.875C20.0177 6.875 20.0582 6.87195 20.0986 6.86883C20.1348 6.8718 20.1708 6.87531 20.2076 6.87578C25.1634 6.94234 29.1953 11.0074 29.1953 15.9375V18.125C29.1953 18.988 29.8948 19.6875 30.7578 19.6875C31.6208 19.6875 32.3203 18.988 32.3203 18.125V15.9375C32.3203 9.74117 27.5908 4.56164 21.5391 3.83719V1.5625C21.5391 0.699531 20.8395 0 19.9766 0C19.1136 0 18.4141 0.699531 18.4141 1.5625V3.85664C15.7535 4.20984 13.294 5.43414 11.3745 7.38547C9.11281 9.68469 7.86719 12.7219 7.86719 15.9375V21.4062C7.86719 24.8955 4.72352 26.1566 4.52094 26.2341C3.89305 26.4524 3.49219 27.0374 3.49219 27.7027C3.49219 29.3426 4.07641 31.1355 5.05492 32.499C6.35719 34.3133 8.29969 35.3125 10.5243 35.3125H15.3672C15.3672 37.8972 17.47 40 20.0547 40C22.6394 40 24.7422 37.8972 24.7422 35.3125H29.5851C32.5649 35.3125 34.2597 33.7713 35.1566 32.4786C36.4748 30.5788 36.6171 28.5057 36.6171 27.7027C36.6172 27.0371 36.2164 26.4522 35.5883 26.234ZM20.0547 36.875C19.1931 36.875 18.4922 36.1741 18.4922 35.3125H21.6172C21.6172 36.1741 20.9163 36.875 20.0547 36.875Z" fill="#6366F1"/>
<path d="M38.1234 12.7404C37.4701 9.09873 35.7528 5.68685 33.2877 3.13318C32.6884 2.51232 31.6993 2.4949 31.0784 3.09419C30.4575 3.69357 30.4401 4.68271 31.0394 5.30357C33.079 7.41646 34.5024 10.2535 35.0475 13.2922C35.1831 14.0483 35.8415 14.579 36.5836 14.579C36.6752 14.579 36.7681 14.571 36.8613 14.5543C37.7107 14.4019 38.2758 13.5898 38.1234 12.7404Z" fill="#D946EF"/>
</svg>
