<svg width="40" height="40" viewBox="0 0 40 40" fill="none" xmlns="http://www.w3.org/2000/svg">
<g clip-path="url(#clip0_20005153_1459)">
<path d="M36.6041 23.9511C36.2806 23.1512 35.3698 22.7646 34.5698 23.0882C33.7698 23.4116 33.3834 24.3223 33.7068 25.1224L35.547 29.6744L30.0816 27.2651C29.6859 27.0907 29.2357 27.088 28.8381 27.2577C26.9702 28.0546 24.9693 28.4587 22.8909 28.4587C14.5258 28.4587 8.90653 21.9091 8.90653 15.7918C8.90653 8.80733 15.1799 3.12499 22.8909 3.12499C30.6019 3.12499 36.8752 8.80733 36.8752 15.7918C36.8752 16.3368 36.8244 16.9893 36.7361 17.5819C36.6087 18.4354 37.1974 19.2305 38.0509 19.3579C38.9045 19.4855 39.6996 18.8965 39.8269 18.043C39.9387 17.2938 40.0002 16.4943 40.0002 15.7918C40.0002 11.5473 38.2029 7.56467 34.9391 4.57757C31.7139 1.6257 27.4351 0 22.8909 0C18.3467 0 14.0679 1.6257 10.8427 4.57749C7.92614 7.24686 6.18177 10.7115 5.84341 14.4474C2.1749 16.8768 0.000296235 20.7696 0.000296235 24.9628C0.000296235 27.5822 0.825529 30.0675 2.39639 32.2063L0.114202 37.8518C-0.124157 38.4413 0.0185775 39.1166 0.475217 39.5592C0.772795 39.8478 1.1649 40 1.56311 40C1.77584 39.9999 1.99037 39.9566 2.19303 39.8672L8.7734 36.9664C10.4287 37.5826 12.1785 37.8945 13.9846 37.8945C14.0236 37.8945 14.062 37.8915 14.1003 37.8887C16.7126 37.8689 19.2522 37.1818 21.4517 35.8959C23.4219 34.7441 25.0425 33.1617 26.1787 31.2931C27.288 31.0938 28.3722 30.7929 29.4245 30.3906L37.8074 34.0859C38.0101 34.1752 38.2246 34.2188 38.4373 34.2188C38.8355 34.2187 39.2277 34.0665 39.5253 33.778C39.9819 33.3353 40.1247 32.6602 39.8863 32.0706L36.6041 23.9511ZM13.9847 34.7656C13.9634 34.7656 13.9426 34.7679 13.9214 34.7688C12.326 34.7606 10.7904 34.447 9.35622 33.8352C8.95864 33.6654 8.5084 33.6681 8.11278 33.8426L4.45365 35.4556L5.63404 32.5356C5.85224 31.9959 5.75216 31.3795 5.3745 30.9364C3.90302 29.2101 3.12529 27.1446 3.12529 24.9628C3.12529 22.4659 4.17568 20.1 6.01349 18.3061C6.58567 21.4253 8.20012 24.409 10.6355 26.7529C13.6661 29.6696 17.6746 31.3592 22.0031 31.5627C19.971 33.5631 17.0628 34.7656 13.9847 34.7656Z" fill="#6366F1"/>
<path d="M22.8125 17.4219C23.6754 17.4219 24.375 16.7223 24.375 15.8594C24.375 14.9964 23.6754 14.2969 22.8125 14.2969C21.9496 14.2969 21.25 14.9964 21.25 15.8594C21.25 16.7223 21.9496 17.4219 22.8125 17.4219Z" fill="#D946EF"/>
<path d="M29.0625 17.4219C29.9254 17.4219 30.625 16.7223 30.625 15.8594C30.625 14.9964 29.9254 14.2969 29.0625 14.2969C28.1996 14.2969 27.5 14.9964 27.5 15.8594C27.5 16.7223 28.1996 17.4219 29.0625 17.4219Z" fill="#D946EF"/>
<path d="M16.5625 17.4219C17.4254 17.4219 18.125 16.7223 18.125 15.8594C18.125 14.9964 17.4254 14.2969 16.5625 14.2969C15.6996 14.2969 15 14.9964 15 15.8594C15 16.7223 15.6996 17.4219 16.5625 17.4219Z" fill="#D946EF"/>
</g>
<defs>
<clipPath id="clip0_20005153_1459">
<rect width="40" height="40" fill="white"/>
</clipPath>
</defs>
</svg>
