<svg width="40" height="40" viewBox="0 0 40 40" fill="none" xmlns="http://www.w3.org/2000/svg">
<g clip-path="url(#clip0_20005153_1508)">
<path d="M28.5202 9.60938C28.5184 9.60938 28.5166 9.60938 28.5148 9.60938C28.0984 9.60938 27.6991 9.77562 27.4056 10.0713L18.4411 19.1058L15.0858 15.7002C14.7945 15.4047 14.3977 15.2371 13.9829 15.2344C13.9795 15.2344 13.9762 15.2344 13.9727 15.2344C13.5615 15.2344 13.1667 15.3966 12.8741 15.6859L6.86985 21.6234C6.25626 22.2302 6.25071 23.2195 6.8575 23.833C7.16313 24.1421 7.56563 24.297 7.9686 24.2969C8.36547 24.2969 8.76266 24.1465 9.06719 23.8454L13.9584 19.0085L17.3242 22.4247C17.6173 22.7221 18.017 22.8898 18.4345 22.8905C18.4355 22.8905 18.4363 22.8905 18.4373 22.8905C18.8538 22.8905 19.253 22.7243 19.5464 22.4286L28.507 13.398L30.9141 15.8584C31.5179 16.4752 32.507 16.4859 33.1238 15.8824C33.7406 15.2789 33.7513 14.2897 33.1479 13.6728L29.6316 10.0791C29.3389 9.78008 28.9386 9.61086 28.5202 9.60938Z" fill="#D946EF"/>
<path d="M38.4375 18.9062C39.3005 18.9062 40 18.2067 40 17.3438V4.76562C40 3.90266 39.3005 3.20312 38.4375 3.20312H21.5625V1.5625C21.5625 0.699531 20.863 0 20 0C19.137 0 18.4375 0.699531 18.4375 1.5625V3.20312H1.5625C0.699531 3.20312 0 3.90266 0 4.76562V25.2344C0 28.6806 2.80375 31.4844 6.25 31.4844H18.4375V36.875H13.75C12.887 36.875 12.1875 37.5745 12.1875 38.4375C12.1875 39.3005 12.887 40 13.75 40H26.1719C27.0348 40 27.7344 39.3005 27.7344 38.4375C27.7344 37.5745 27.0348 36.875 26.1719 36.875H21.5625V31.4844H33.75C37.1963 31.4844 40 28.6806 40 25.2344C40 24.3714 39.3005 23.6719 38.4375 23.6719C37.5745 23.6719 36.875 24.3714 36.875 25.2344C36.875 26.9575 35.4731 28.3594 33.75 28.3594H6.25C4.52688 28.3594 3.125 26.9575 3.125 25.2344V6.32812H36.875V17.3438C36.875 18.2067 37.5745 18.9062 38.4375 18.9062Z" fill="#6366F1"/>
</g>
<defs>
<clipPath id="clip0_20005153_1508">
<rect width="40" height="40" fill="white"/>
</clipPath>
</defs>
</svg>
