<svg width="40" height="40" viewBox="0 0 40 40" fill="none" xmlns="http://www.w3.org/2000/svg">
<g clip-path="url(#clip0_20005153_1500)">
<path d="M19.9222 40C19.6826 40 19.4434 39.9451 19.2233 39.8352C19.0405 39.7437 14.6954 37.5406 10.1492 32.5989C7.48444 29.7028 5.29572 26.4551 3.6435 22.9465C1.5799 18.5641 0.355232 13.7662 0.00275426 8.68591C-0.0259322 8.27148 0.111702 7.86285 0.384834 7.55005C0.658272 7.23724 1.04462 7.0459 1.45936 7.01874C4.32099 6.83075 6.56281 4.4342 6.56281 1.5625C6.56281 0.699463 7.26227 0 8.12531 0H31.8753C32.738 0 33.4378 0.699463 33.4378 1.5625C33.4378 4.43237 35.6781 6.82892 38.5382 7.01874C38.9594 7.04651 39.3512 7.24365 39.6246 7.565C39.8984 7.88635 40.0302 8.30475 39.9905 8.72498C39.4562 14.3658 37.8986 19.6417 35.3607 24.4064C34.9548 25.1682 34.0085 25.4565 33.2471 25.051C32.4854 24.6454 32.197 23.699 32.6025 22.9373C34.7284 18.9462 36.1099 14.5578 36.7175 9.87366C33.5181 9.03015 31.0602 6.38428 30.4559 3.125H9.54468C8.93799 6.39832 6.4621 9.05243 3.2428 9.88403C4.06403 17.7667 7.128 24.6588 12.3618 30.3882C15.4947 33.8174 18.5663 35.8408 19.9133 36.6415C21.3873 35.7449 24.9521 33.3356 28.4225 29.158C28.974 28.494 29.9588 28.403 30.6229 28.9545C31.2866 29.5059 31.3779 30.491 30.8264 31.1548C25.8875 37.1002 20.8463 39.7198 20.6339 39.8285C20.4105 39.9429 20.1663 40 19.9222 40Z" fill="#6366F1"/>
<path d="M21.1304 31.5443C21.6507 30.8555 21.5143 29.8759 20.8261 29.3556C19.4751 28.3347 18.1967 27.1772 17.0261 25.9156C13.6225 22.2462 11.3132 17.935 10.1532 13.0882C10.7782 12.6054 11.3663 12.0719 11.9092 11.4945C12.8095 10.5366 13.5782 9.46695 14.1941 8.31461C14.6005 7.5535 14.3131 6.60684 13.552 6.20004C12.7909 5.79355 11.8442 6.08102 11.4377 6.84213C10.9516 7.75156 10.3443 8.59659 9.63259 9.35403C9.00515 10.0215 8.30203 10.6138 7.54336 11.1152C7.01113 11.4668 6.74593 12.1067 6.8738 12.732C8.06338 18.549 10.708 23.6997 14.7351 28.0409C16.0297 29.4364 17.4451 30.7179 18.942 31.8488C19.224 32.0619 19.5548 32.1647 19.8828 32.1647C20.3559 32.1647 20.8234 31.9508 21.1304 31.5443Z" fill="#D946EF"/>
</g>
<defs>
<clipPath id="clip0_20005153_1500">
<rect width="40" height="40" fill="white"/>
</clipPath>
</defs>
</svg>
