<svg width="65" height="68" viewBox="0 0 65 68" fill="none" xmlns="http://www.w3.org/2000/svg">
<path d="M53.9527 51.0012C62.3487 40.4344 55.9829 24.9878 42.2046 24.2501C41.5147 24.1855 40.7434 24.2516 40.0788 24.2932C40.2031 33.3394 35.9074 43.1828 28.517 45.6746C21.8475 47.8879 18.1833 41.4522 20.9357 35.9986C24.2323 29.5231 30.0387 24.1482 37.1035 22.1797C36.5381 16.4844 33.7599 11.4125 27.6185 9.69453C17.2678 6.8204 6.49364 16.3681 4.98841 26.127C4.89565 27.1567 3.30272 27.0767 3.39548 26.0469C3.98732 12.9139 19.7395 2.55212 31.9628 8.5787C36.6881 10.96 39.2277 15.975 39.8996 21.6457C47.3233 20.7146 54.415 25.014 58.2418 31.1879C62.6406 38.3502 60.6002 46.328 55.6096 52.2987C54.827 53.264 53.2765 51.9415 53.9527 51.0012ZM26.7754 32.1845C24.8343 34.4256 22.6994 37.2717 22.4212 40.3609C22.1176 43.3438 26.1813 43.4134 27.9117 43.1254C30.0685 42.7391 31.6338 40.809 32.798 39.0835C35.4208 35.4527 37.1637 30.0083 37.2824 24.8272C33.2016 26.1062 29.631 29.0599 26.7754 32.1845Z" fill="#6366F1"/>
<path d="M51.4065 57.7765C50.7004 54.8027 50.1822 51.6734 50.2474 48.6335C50.2897 47.3915 52.0144 47.553 52.0787 48.7707C52.2071 51.2057 52.8937 53.6239 53.5551 55.9358C54.9152 55.5095 56.382 55.0586 57.717 54.526C58.7323 54.0674 60.1543 52.9546 61.3714 53.3456C61.9801 53.541 62.1061 54.072 62.0189 54.6524C61.7887 56.05 59.5506 56.5671 58.4288 57.0504C56.5859 57.8123 54.7995 58.3369 52.8811 58.7802C52.242 58.9278 51.5578 58.4137 51.4065 57.7765Z" fill="#6366F1"/>
</svg>
