<svg width="48" height="56" viewBox="0 0 48 56" fill="none" xmlns="http://www.w3.org/2000/svg">
<path fill-rule="evenodd" clip-rule="evenodd" d="M46.0611 9.74399C45.6452 7.50912 44.3218 6.40785 43.1253 5.97483C41.8344 5.50639 39.2167 5.02115 35.9278 4.63196C33.2818 4.31912 30.1719 4.34402 28.2933 4.40232C28.0678 2.85192 26.9847 1.43559 25.7727 0.945234C22.5436 -0.359705 17.5543 -0.0444499 16.2733 0.315979C15.2554 0.601601 14.1287 1.18703 13.5017 2.08897C13.0811 2.69149 12.8091 3.46341 12.8069 4.5418C12.8069 5.15214 12.8239 6.5899 12.8393 7.86723C12.8521 8.93413 12.8659 9.90715 12.8701 10.2076L12.8701 10.2081L12.8715 10.3025C12.8709 11.4433 11.9499 12.3718 10.8086 12.3733H5.57295C4.45623 12.3733 3.60285 12.5617 2.95109 12.859C2.29827 13.1566 1.83591 13.5578 1.4846 14.0325C0.785247 14.9749 0.663913 16.138 0.666798 17.3249C0.666798 17.3249 0.677085 18.2948 0.909851 20.172C1.10329 21.6245 2.67227 31.7716 4.16261 34.8576C4.74034 36.0583 5.1253 36.5584 6.26048 37.0876C8.78974 38.1748 14.567 39.3842 17.2747 39.7306C17.7225 39.7881 18.1427 39.8561 18.5368 39.9199L18.5368 39.9199C20.5208 40.2412 21.8414 40.455 22.6848 38.6795C22.6882 38.6743 22.8874 38.15 23.1612 37.3811C24.0389 34.7109 24.1611 32.3417 24.1611 30.6273C24.1611 30.4529 24.4159 30.4449 24.4159 30.6273C24.4159 30.6946 24.4152 30.7715 24.4144 30.8568V30.8568C24.401 32.3047 24.365 36.185 27.4085 37.2702C28.6808 37.7232 31.32 38.1271 34.0018 38.4426C36.4266 38.7224 38.1864 39.6805 38.1864 45.9263C38.1864 49.7263 37.3914 50.2472 33.2355 50.2472L32.9264 50.2474C29.7877 50.25 28.5826 50.251 28.5826 47.6478C28.5826 45.661 30.3731 45.6823 31.892 45.7003C32.0335 45.702 32.1725 45.7036 32.3076 45.7036C32.7533 45.7036 32.7149 45.4941 32.6252 45.0047C32.5724 44.7166 32.5018 44.3314 32.5018 43.8349C32.5018 43.2699 32.651 42.806 32.7631 42.4574C32.9154 41.9838 32.9991 41.7233 32.5467 41.712C27.0639 41.5605 23.8378 41.7057 23.8378 48.59C23.8378 54.8398 26.22 56.0004 34.0018 56.0004C40.1031 56.0004 42.2538 55.7998 44.7731 47.9519C45.2718 46.4027 46.4774 41.6747 47.207 33.7364C47.6681 28.717 46.7719 13.5676 46.0611 9.74399ZM35.4252 26.49C34.6715 26.4636 33.9464 26.5114 33.2703 26.6204C33.4606 25.0777 34.0949 23.1846 36.3418 23.2638C38.829 23.3498 39.1775 25.7099 39.1865 27.3086C38.1376 26.8392 36.8393 26.5399 35.4252 26.49ZM5.33066 10.8484H5.32719C4.04155 10.8484 2.96752 11.0684 2.08175 11.4697C2.04144 11.4873 1.75864 11.6278 1.54872 11.7321L1.54305 11.7349C1.54882 11.7131 1.56122 11.6918 1.58112 11.6753L11.7524 1.54887C11.7723 1.52889 11.7924 1.51904 11.8124 1.51567L11.6334 1.85322C11.2587 2.60477 11.0437 3.50179 11.0437 4.53057V4.54534C11.0437 5.75065 11.1026 9.96672 11.107 10.2852L11.1073 10.3043C11.1066 10.6031 10.8654 10.8484 10.5654 10.8484H5.33066Z" fill="#20C05C"/>
</svg>
