<svg width="54" height="56" viewBox="0 0 54 56" fill="none" xmlns="http://www.w3.org/2000/svg">
<path fill-rule="evenodd" clip-rule="evenodd" d="M52.2308 40.0173L52.2257 40.0357C52.0561 40.6562 47.8604 56.005 32.1036 56.0004C18.2645 55.9961 11.705 43.8261 11.705 43.8261C10.6964 43.883 9.72318 43.721 8.82555 43.3874C4.7653 41.8783 2.8172 37.1787 4.21811 33.236L1.98659 31.5107C-6.65765 24.8485 17.8299 -5.63756 26.4891 1.26082C26.5329 1.29568 28.5562 2.94331 28.5562 2.94331C31.6653 1.03311 34.7445 0.000478807 37.2474 0.000366284C39.0249 0.000141456 40.5115 0.520787 41.5126 1.61752C43.7602 4.07951 42.9524 8.78095 39.8834 13.5409C40.5435 14.1749 41.0906 15.0366 41.4811 15.892C42.4567 16.6536 43.0892 17.8115 43.4034 19.4107C43.5977 20.3983 43.7065 21.6188 43.8024 22.6953C43.8792 23.5569 43.9477 24.3262 44.0454 24.8101C44.2524 24.9046 44.3856 24.9646 44.4828 25.0083C44.5741 25.0494 44.6335 25.0762 44.6925 25.1039C44.8027 25.1556 44.9113 25.2105 45.2225 25.3679C45.2763 25.3951 45.336 25.4253 45.4028 25.459C46.3229 25.9242 47.4433 26.4908 48.6815 27.6961C50.8823 28.254 51.7227 30.6213 50.435 32.237C50.4004 32.2803 50.2449 32.4667 50.0838 32.6522C50.0897 32.6678 50.1046 32.6973 50.1266 32.741L50.1267 32.7411C50.2488 32.9833 50.5911 33.6622 50.8491 34.8553C51.7611 35.0732 52.4875 35.6413 52.8688 36.4651C53.5281 38.0774 52.2308 40.0173 52.2308 40.0173ZM45.885 51.9831V52.6463H46.1361V51.9831H46.3928V51.7738H45.6316V51.9831H45.885ZM46.4695 52.6463V51.7738H46.8273L46.9842 52.2759L47.1388 51.7738H47.4968V52.6463H47.2679V52.0147L47.0808 52.6463H46.8855L46.6984 52.0164V52.6463H46.4695Z" fill="#5B453E"/>
<path fill-rule="evenodd" clip-rule="evenodd" d="M50.824 39.0807C50.6253 39.8244 49.6515 43.4696 45.7537 46.5437C40.3397 50.8142 33.2264 50.382 30.5399 47.9888C29.1047 46.6414 28.4835 44.7143 28.4835 44.7143C28.4835 44.7143 28.321 45.8002 28.2932 46.2268C27.2106 44.3786 27.3021 42.1212 27.3021 42.1212C27.3021 42.1212 26.7246 43.2022 26.4602 43.8077C25.6634 41.7721 26.0751 39.6702 26.0751 39.6702L25.4447 40.6133C25.4447 40.6133 25.1491 38.3095 25.8749 36.3904C26.6505 34.3398 28.1543 32.8501 28.4515 32.6644C27.3106 32.3004 25.9961 31.2568 25.9939 31.2549C25.9939 31.2549 26.5165 31.2896 26.8799 31.2059C26.8799 31.2059 24.573 29.547 24.1685 27.0089C24.5027 27.4234 25.204 27.8917 25.204 27.8917C24.977 27.2275 24.8396 25.7498 25.0517 24.2954L25.0525 24.2938C25.4889 21.5155 27.7701 19.7063 30.3539 19.729C30.8476 19.7334 31.3122 19.7556 31.7553 19.7769C33.7815 19.874 35.3621 19.9498 37.2543 18.1984C37.2809 18.1737 37.3072 18.1492 37.3333 18.125C37.7856 17.7048 38.1692 17.3485 38.8169 17.2044C38.8297 17.2015 38.8458 17.1968 38.8658 17.191C38.9585 17.164 39.1334 17.113 39.4359 17.113C39.808 17.113 40.1663 17.197 40.4941 17.3929C41.7449 18.1402 42.0146 20.0892 42.149 21.5183C42.4528 24.7581 42.4958 25.6652 42.9713 26.1303C43.2737 26.4262 43.7512 26.5432 44.5822 26.9682C44.6806 27.0184 44.7801 27.0683 44.8809 27.1188C45.8244 27.5921 46.8734 28.1184 48.0512 29.3842C48.0577 29.3913 48.0671 29.3955 48.0767 29.3957C49.1762 29.4221 49.7429 30.291 49.2356 30.9237C45.5463 35.3461 40.3936 37.4638 34.6511 37.641C34.467 37.6457 34.1046 37.6542 33.9501 37.6578C33.9055 37.6589 33.8783 37.6595 33.8776 37.6595C31.5583 37.73 30.8031 40.7418 32.2584 42.5531C33.1781 43.6979 34.9472 44.0741 36.4033 44.0798L36.424 44.0724C42.7025 44.2001 49.0103 39.7405 50.0998 37.2812C50.1077 37.2635 50.1742 37.1069 50.1742 37.1069C50.1742 37.1069 50.1162 37.1751 50.0462 37.2327C50.0428 37.235 50.0262 37.2502 49.9969 37.2771C49.4018 37.8228 43.5629 43.1768 36.3744 42.9745C36.3744 42.9745 35.5619 42.9576 34.7968 42.7788C33.7879 42.5432 33.0215 42.0983 32.7281 41.0889C32.641 40.904 32.5909 40.2644 32.7067 39.8339C33.0222 38.7739 33.5507 38.7646 34.3682 38.7503C34.4906 38.7482 34.6194 38.7459 34.755 38.74H34.7551C38.4742 38.6157 41.4753 37.677 43.7245 36.6052C46.1229 35.4622 47.9507 33.9896 48.6093 33.2462C49.4635 34.6898 49.4583 36.5436 49.4583 36.5436C49.4583 36.5436 49.7934 36.4261 50.2369 36.4261C51.6309 36.4262 51.9177 37.6777 50.8625 38.948C50.856 38.9608 50.8439 39.0062 50.824 39.0807ZM16.171 32.276C16.171 32.276 15.9974 32.9971 15.6531 33.8757C15.3224 31.0636 14.1467 30.4686 14.1467 30.4687C13.4655 30.1519 12.7124 29.976 11.9205 29.976C8.86545 29.976 6.38892 32.593 6.38892 35.8215C6.38892 39.0498 8.86545 41.6668 11.9205 41.6668C15.3615 41.6668 17.9734 38.3782 17.3654 34.7856C17.3654 34.7856 17.0146 35.6077 16.6877 36.0442C16.7669 34.7581 16.5652 33.4857 16.171 32.276Z" fill="#F2D8B4"/>
<path d="M4.6401 31.1107C4.61805 31.105 2.53878 29.6251 2.243 29.1377C0.493543 26.2745 3.53719 20.3933 5.70312 17.0503C11.0557 8.78848 19.9649 2.2683 24.0114 3.19943L28.1669 5.27978C26.5534 6.20027 24.9929 7.33089 24.0581 8.08285L23.1738 8.80202C23.1738 8.80202 20.5917 10.4881 19.3074 11.551C14.1593 15.8116 9.09032 22.4072 7.21053 28.7738C7.21053 28.7736 5.66599 29.5173 4.6401 31.1107Z" fill="#207EAC"/>
<path d="M25.0556 3.20696C20.9308 2.19676 11.8497 9.2705 6.39366 18.234C6.39208 18.2366 6.3905 18.2393 6.38892 18.2419L6.41094 18.2443L10.7583 21.7774C15.5317 13.9557 21.5311 9.92259 21.7003 9.80412L21.011 5.01677L22.3023 4.37856L24.8938 5.24486L24.6956 4.35115L25.0556 3.20696Z" fill="#4FB1D3"/>
<path d="M31.2774 4.3726L26.5567 7.53501L26.2264 7.78118L22.0402 4.5237L21.9441 3.90766L23.3996 3.24397C23.4743 3.26701 26.2054 4.10933 26.3206 4.14486L26.3694 2.41765L26.5031 2.0256L27.7817 1.55896C27.7835 1.56017 31.2726 4.3686 31.2774 4.3726Z" fill="#FACD55"/>
<path d="M36.4689 1.55896C33.802 1.55896 30.808 3.03787 28.5112 4.4919C28.1891 4.69178 27.8694 4.90096 27.5563 5.11415L26.3545 4.05199L26.791 5.65142C26.626 5.77092 26.4649 5.89007 26.3072 6.00854L23.8241 5.2091L25.4671 6.65923C25.092 6.959 24.7569 7.23963 24.4789 7.48263L20.5387 4.05233L20.7473 5.58973L23.611 8.25007C23.611 8.25007 21.0768 10.0489 19.8164 11.1831C14.7638 15.7288 9.78897 22.7661 7.94409 29.559L8.04894 29.4968C8.06319 29.4884 8.07755 29.4816 8.0918 29.4733C8.14313 29.4442 8.19425 29.4164 8.24559 29.3891C8.27855 29.3717 8.31128 29.354 8.34424 29.3374C8.39699 29.3107 8.44985 29.2858 8.50271 29.2613C8.53382 29.2467 8.56514 29.2314 8.59636 29.2178C8.65357 29.1924 8.71067 29.1695 8.76788 29.1467C8.79431 29.1361 8.82074 29.1246 8.84717 29.1147C8.93049 29.0832 9.01348 29.0541 9.09625 29.0281C10.3505 28.6336 12.057 28.3799 14.0545 29.2743C15.0577 26.6065 16.2562 23.8923 18.1449 21.2842C19.6763 19.1695 21.1483 17.2817 22.9152 16.2434C26.2607 12.9298 35.2774 9.41613 38.1661 12.4618C38.8492 11.2837 39.442 10.1684 39.9303 8.77037C41.1357 5.4083 41.1576 1.55896 36.4689 1.55896Z" fill="#070A11"/>
<path d="M26.6112 4.66627L25.6317 3.11072L25.0557 3.88569L25.4004 4.49488L26.6112 4.66627Z" fill="#070A11"/>
<path fill-rule="evenodd" clip-rule="evenodd" d="M35.6702 1.55896C34.206 1.71252 32.6793 2.24527 31.2549 2.91956C26.4465 5.23517 23.0904 8.65102 22.6879 9.06071C22.6706 9.07831 22.6587 9.09036 22.6525 9.09654C22.2531 9.48993 21.855 9.89741 21.4601 10.3168C20.2851 11.5641 19.1372 12.915 18.0616 14.3041C16.1596 16.7601 15.3682 17.9062 14.1668 20.2408C14.1666 20.2411 14.1748 20.231 14.1909 20.2112C14.6253 19.6771 20.7938 12.0936 22.3723 10.4859C25.3763 7.4262 30.2931 4.0187 30.3443 3.98834C32.4439 2.66913 34.216 1.89491 35.6702 1.55896ZM47.5611 32.3555C48.3887 33.7863 48.3837 35.6235 48.3837 35.6235C48.398 36.1508 48.3811 36.4417 48.3523 36.8495C46.674 38.3046 41.6698 42.169 35.7073 41.9972C35.7073 41.9972 34.92 41.9806 34.1787 41.8034C33.2066 41.5712 32.4668 41.1335 32.179 40.1446L32.1745 40.1286L32.1739 40.1274C32.1695 40.1172 32.1325 40.0281 32.1086 39.8362L32.1077 39.8287L32.1069 39.8214C32.1015 39.7736 32.097 39.7227 32.0939 39.6696L32.0929 39.6511L32.0926 39.645C32.0883 39.5601 32.0873 39.4629 32.0908 39.3525C32.0923 39.3138 32.0946 39.2752 32.0977 39.2366L32.0981 39.2367L32.0985 39.2245C32.1086 39.1052 32.1264 38.9887 32.1538 38.8846C32.4595 37.834 32.9715 37.8248 33.7636 37.8106C33.8822 37.8085 34.007 37.8063 34.1383 37.8004H34.1384C37.7417 37.6772 40.6494 36.7468 42.8285 35.6846C45.1521 34.5518 46.9231 33.0923 47.5611 32.3555Z" fill="#FFFFFE"/>
<path fill-rule="evenodd" clip-rule="evenodd" d="M41.4009 23.1162C41.6624 25.9028 41.7245 26.5645 42.2768 26.9572C42.292 26.9721 42.3076 26.9848 42.3232 26.9951C41.9524 27.1033 41.6205 27.205 41.3262 27.298C40.7839 26.5629 40.031 25.8756 38.4832 25.9873C36.4318 26.1634 34.8017 27.9972 35.0969 29.8183C34.1222 30.31 33.2143 30.8199 32.3699 31.3391C30.9768 31.4884 29.2797 31.9694 27.7829 33.2226C26.6547 32.8673 25.3548 31.8488 25.3525 31.8469C25.3525 31.8469 25.8695 31.8808 26.2287 31.7991C26.2287 31.7991 26.2038 31.7813 26.1589 31.7469C26.1569 31.7444 26.1546 31.742 26.1519 31.7399C26.1213 31.7159 26.09 31.6921 26.0583 31.668C25.5217 31.2366 23.8811 29.7678 23.5476 27.7027C23.8781 28.1073 24.5715 28.5643 24.5715 28.5643C24.5632 28.5405 24.5551 28.5155 24.5471 28.4896C24.548 28.4869 24.5485 28.484 24.5488 28.4811L24.5489 28.4777C24.5489 28.4777 24.4527 28.2032 24.3851 27.6742C24.3666 27.5255 24.3514 27.3672 24.3399 27.2014C24.3326 27.0896 24.3269 26.971 24.3237 26.8452C24.4086 25.8013 24.6748 24.9242 25.3379 24.0944C26.305 22.8847 27.6319 22.3931 29.1628 22.4167C29.5843 22.422 30.0101 22.4655 30.4539 22.5109C30.8801 22.5544 31.3229 22.5997 31.7943 22.6144C33.1092 22.6555 34.3757 22.4388 35.7084 21.8412C37.0252 21.2194 37.7697 20.5018 38.5489 19.3875C38.8235 19.087 39.3078 18.6473 39.7361 18.666C40.0202 18.666 40.2174 18.8055 40.3576 18.9269C41.0358 19.8341 41.2235 21.2462 41.3281 22.3441C41.3542 22.6182 41.3783 22.8751 41.4009 23.1162ZM37.3967 28.4921C37.7132 27.4816 39.1486 26.9956 40.0153 27.6062C39.628 27.8294 39.5087 28.4764 39.745 28.8518C39.2551 28.8428 38.7516 29.0345 38.3975 29.3741C38.4304 28.8931 37.8983 28.5172 37.3967 28.4921ZM42.6318 48.2224C43.4066 47.8186 44.1655 47.337 44.8934 46.7703C48.7473 43.7704 49.7105 40.2131 49.9073 39.4866C49.927 39.4137 49.939 39.3693 49.9455 39.3568C48.1613 41.6423 45.8274 43.4586 43.3301 44.7159C41.2767 45.7504 39.7405 46.1103 39.7405 46.1103C39.7405 46.1103 40.8401 47.5477 42.6318 48.2224ZM30.923 39.9371C31.196 38.9305 31.967 38.133 33.1488 38.0975L33.2214 38.0958C33.3746 38.0922 33.7319 38.084 33.9137 38.0794C39.5923 37.9065 44.6875 35.8395 48.3358 31.5233C48.8374 30.9058 48.277 30.0578 47.1898 30.032L47.1815 30.0319L47.1743 30.032C47.0803 30.1305 47.0257 30.2706 46.9542 30.4543C46.8858 30.6298 46.802 30.8452 46.6533 31.1021C45.5436 33.0121 44.0088 33.8856 41.9622 34.8989C38.6352 36.5399 36.1575 36.906 34.3691 37.1702C32.7844 37.4043 31.741 37.5585 31.1275 38.4487C30.748 39.0064 30.7409 39.6293 30.923 39.9371ZM43.0178 39.224C43.0021 39.2243 42.9859 39.2278 42.9601 39.2335C42.8792 39.252 42.6996 39.3101 42.4396 39.3942C40.7129 39.9526 35.4377 41.6585 31.9343 40.5683C31.9162 40.7868 31.922 41.246 32.0123 41.4455L32.0128 41.4467C32.6225 41.5678 33.3943 41.6452 34.29 41.6452C39.5944 41.6452 43.417 39.2558 43.0178 39.224ZM13.3461 38.7317L13.3416 38.7348C10.849 38.9169 8.54417 35.761 9.90495 34.0208C10.0913 33.8818 10.2508 33.8019 10.3138 33.7703C10.3248 33.7648 10.3329 33.7607 10.3377 33.7581C10.374 33.739 10.4113 33.7234 10.45 33.7072C10.4769 33.696 10.5044 33.6846 10.5327 33.6714C10.56 33.6601 10.5914 33.6506 10.6259 33.641C10.7364 33.6101 10.7602 33.6014 10.7844 33.5945C10.8086 33.5876 10.8334 33.5825 10.945 33.5591H10.9448C12.1554 33.305 13.0094 33.8357 13.3812 34.3576C13.5524 34.5977 13.5892 34.7783 13.6159 34.9093C13.6246 34.9518 13.6322 34.9892 13.643 35.0216L13.6433 35.0232C13.3534 34.6226 12.9791 34.5348 12.9791 34.5348C12.6635 34.4103 12.0571 34.6005 12.0176 35.277C11.9993 35.5372 12.0775 35.8288 12.3022 36.0851L12.3039 36.087C12.3119 36.096 12.32 36.1052 12.3285 36.1142C12.3362 36.1226 12.3441 36.1309 12.3521 36.1389C12.5362 36.328 12.7551 36.4656 12.9642 36.597C13.3229 36.8225 13.6525 37.0297 13.7278 37.4475C13.8046 37.9072 13.6691 38.3877 13.3461 38.7317Z" fill="#E2B986"/>
<path fill-rule="evenodd" clip-rule="evenodd" d="M38.0059 12.153C35.9999 10.5846 30.1449 11.0287 24.2833 14.8921C21.5995 16.6609 19.6314 18.5956 18.1145 20.6057C18.1145 20.6057 20.4562 16.0791 25.6015 13.0851C25.2428 13.0265 24.3994 13.1291 24.1575 13.1585C24.1409 13.1605 24.1271 13.1622 24.1166 13.1635C25.0513 12.3459 26.7878 11.8001 27.9878 11.552C27.6366 11.3248 26.8002 11.2674 26.385 11.2562C26.2718 11.2532 26.2642 11.2535 26.1498 11.2584C26.1402 11.2588 26.1298 11.2592 26.1185 11.2597C27.2471 10.618 29.3398 10.2414 31.2422 10.5816C31.0031 10.2589 30.4609 10.0234 30.0808 9.90891C30.0476 9.8988 29.8984 9.86111 29.8984 9.86111C29.8984 9.86111 30.0256 9.83056 30.0417 9.82738C31.1877 9.60299 32.5264 9.84529 33.5854 10.2777C33.4651 9.99385 33.1712 9.66332 32.9503 9.4541C32.9277 9.43267 32.7958 9.3363 32.7958 9.3363C33.9037 9.56981 34.9654 10.0612 35.7643 10.6192C35.6557 10.4058 35.3871 10.0467 35.2013 9.85056C36.26 10.1586 37.4485 10.9262 37.9578 12.0267C37.9703 12.0515 38.0025 12.1421 38.0062 12.1523L38.0059 12.153ZM33.3075 26.8408C33.4218 27.0108 33.4524 27.1391 33.4062 27.1925C33.3234 27.291 33.0485 27.1811 32.6399 27.0178L32.6399 27.0177C32.5946 26.9996 32.5477 26.9809 32.4992 26.9616C31.2556 26.4899 30.3393 26.418 28.7174 27.0423L28.5879 27.0928C28.2459 27.2264 28.0014 27.322 27.877 27.3032C27.6496 27.2688 27.8698 26.8454 28.3669 26.4346C29.3671 25.6232 30.7408 25.3714 31.9147 25.8157C32.4285 26.008 33.0055 26.3918 33.3075 26.8408ZM33.0607 28.1348C32.7198 27.8699 32.092 27.6924 31.4401 27.805C31.3383 27.8208 31.2423 27.8487 31.1485 27.8759C31.1163 27.8853 31.0844 27.8946 31.0526 27.9032C31.007 27.9147 30.9635 27.931 30.921 27.9492C30.6515 28.0646 30.4182 28.189 30.1918 28.4097C29.932 28.6649 29.8582 28.902 29.9333 28.9603C29.9976 29.0125 30.1424 28.9519 30.3623 28.8599L30.3973 28.8452L30.4648 28.8172C31.3955 28.4238 32.0543 28.4133 32.6818 28.4578L32.7264 28.4609C33.0043 28.4801 33.1893 28.4928 33.234 28.4132C33.2671 28.3563 33.207 28.2482 33.0607 28.1348ZM13.0171 32.9902L13.0169 32.99C12.5082 32.5728 11.7872 32.3754 10.9495 32.5559H10.9497L10.9344 32.5592C10.8363 32.5804 10.8129 32.5854 10.7899 32.5921C10.7827 32.5942 10.7756 32.5965 10.7662 32.5995L10.7662 32.5995L10.7661 32.5995C10.7439 32.6065 10.7092 32.6175 10.632 32.6397C10.5976 32.6494 10.5663 32.6592 10.5393 32.6706C10.5112 32.684 10.484 32.6957 10.4575 32.7071C10.4187 32.7237 10.3815 32.7396 10.3451 32.7593C10.3404 32.762 10.3325 32.7661 10.3216 32.7716C10.2144 32.8267 9.8241 33.027 9.50094 33.4291C9.32826 33.6469 9.19556 33.8891 9.09874 34.1383C8.92378 34.5986 8.85841 35.103 8.8771 35.5877C8.90278 36.2494 9.07591 36.6466 9.14068 36.7952C9.14842 36.8129 9.15461 36.8271 9.15882 36.8378C9.32426 37.1992 8.93675 37.2735 8.58328 36.885L8.58241 36.8842C8.29962 36.5798 8.1185 36.1162 8.02989 35.7044V35.7042C7.97759 35.4595 7.94409 35.1849 7.94409 34.8894C7.94409 34.5467 7.98926 34.1757 8.10262 33.7915L8.10273 33.7909L8.10283 33.7906C8.40941 32.7812 9.09841 32.0189 10.1454 31.6038C10.2119 31.5772 10.2859 31.5575 10.3552 31.5391C10.3866 31.5308 10.417 31.5227 10.4453 31.5143L10.4443 31.5145C10.6207 31.461 11.2522 31.331 11.8942 31.4326C12.2657 31.4911 12.6036 31.6162 12.8948 31.7811C13.1855 31.9457 13.43 32.1501 13.6156 32.3694L13.6164 32.3704C13.9198 32.7212 14.1488 33.2162 14.1081 33.6567L14.108 33.6578C14.0927 33.841 14.013 34.1035 13.8507 34.1717C13.7903 34.1967 13.7297 34.1834 13.6874 34.1411C13.6399 34.0938 13.6265 34.0264 13.6084 33.9355C13.5819 33.8017 13.5452 33.6172 13.3746 33.3717C13.2873 33.2458 13.1702 33.1139 13.0174 32.9904L13.0171 32.9902ZM12.8382 34.6346C12.7225 34.5414 12.6688 34.4619 12.6368 34.3394C12.5895 34.1164 12.6142 33.9868 12.8017 33.8529C12.8423 33.8246 12.8807 33.8004 12.915 33.7788C13.0023 33.7239 13.0623 33.6861 13.0626 33.6407C13.0691 33.5211 12.5862 33.3981 12.2485 33.7361C11.9682 34.0398 11.8797 34.6729 12.327 35.1664C12.5152 35.373 12.7431 35.5199 12.9601 35.6599C13.3171 35.8901 13.6449 36.1014 13.7199 36.5287C13.7358 36.626 13.7475 36.7344 13.7392 36.8414C13.7408 36.9512 13.7086 37.1042 13.7004 37.1433L13.6986 37.1522C13.5488 37.8158 12.9295 38.4489 11.9083 38.2876L11.864 38.2809C11.701 38.2564 11.5954 38.2404 11.562 38.289C11.4832 38.4004 11.9209 38.9096 12.722 38.8912C13.5059 38.8743 14.2835 38.2775 14.5328 37.3805L14.5346 37.374C14.5462 37.3314 14.6097 37.0977 14.6153 36.8867C14.6293 36.7179 14.6173 36.5443 14.5864 36.3626C14.4339 35.5024 13.7675 35.1527 13.2655 34.8892C13.0954 34.8 12.9441 34.7206 12.8382 34.6346ZM39.4763 27.1055C39.5427 26.6736 39.8474 26.3633 40.1572 26.4124C40.4669 26.4616 40.6643 26.8516 40.5981 27.2835C40.5317 27.7155 40.2269 28.0258 39.9172 27.9767C39.6074 27.9275 39.41 27.5375 39.4763 27.1055ZM36.7535 27.6728C36.5832 27.9887 36.7906 28.4374 37.2167 28.6747C37.6427 28.9122 38.1261 28.8486 38.2964 28.5325C38.4666 28.2166 38.2594 27.768 37.8332 27.5306C37.4071 27.2933 36.9237 27.3569 36.7535 27.6728Z" fill="#916D53"/>
<path d="M37.5012 24.6206C37.495 24.1928 37.5449 23.486 37.8426 23.3545C37.843 23.3544 37.8428 23.3544 37.8432 23.3542C38.3519 23.1155 39.0253 24.8783 39.0563 26.4435C38.6544 26.1711 38.1821 26.0556 37.6963 26.1126C37.5742 25.6087 37.5157 25.134 37.5012 24.6206Z" fill="#5B453E"/>
</svg>
