<svg width="113" height="28" viewBox="0 0 113 28" fill="none" xmlns="http://www.w3.org/2000/svg">
<path d="M33.5994 8.81123H36.3332V19.425H33.5994V8.81123ZM37.4177 15.4175C37.4177 12.7925 39.0944 11.2262 41.6825 11.2262C44.2706 11.2262 45.9473 12.7925 45.9473 15.4175C45.9473 18.0425 44.307 19.6175 41.6825 19.6175C39.058 19.6175 37.4177 18.0862 37.4177 15.4175ZM43.2044 15.4175C43.2044 13.9737 42.612 13.125 41.6825 13.125C40.753 13.125 40.1698 14 40.1698 15.4175C40.1698 16.835 40.7439 17.6925 41.6825 17.6925C42.6211 17.6925 43.2044 16.8875 43.2044 15.4262V15.4175ZM46.9771 19.9412H49.6016C49.7266 20.2077 49.9377 20.4283 50.2037 20.5702C50.4697 20.712 50.7764 20.7677 51.0779 20.7287C52.1168 20.7287 52.6636 20.1862 52.6636 19.3987V17.9287H52.6089C52.3911 18.3793 52.0376 18.7567 51.5942 19.0126C51.1507 19.2684 50.6376 19.3907 50.1211 19.3637C48.1253 19.3637 46.804 17.9025 46.804 15.3912C46.804 12.88 48.0615 11.2962 50.1575 11.2962C50.6903 11.2762 51.2166 11.413 51.6662 11.6881C52.1157 11.9634 52.4669 12.364 52.6727 12.8362V11.375H55.4065V19.3375C55.4065 21.2537 53.6478 22.4437 51.0506 22.4437C48.6357 22.4437 47.132 21.4025 46.9771 19.95V19.9412ZM52.6727 15.4087C52.6727 14.1312 52.0621 13.3262 51.0961 13.3262C50.1302 13.3262 49.5378 14.1225 49.5378 15.4087C49.5378 16.695 50.1211 17.4212 51.0961 17.4212C52.0712 17.4212 52.6727 16.7125 52.6727 15.4175V15.4087ZM56.4363 15.4087C56.4363 12.7837 58.1131 11.2175 60.7011 11.2175C63.2892 11.2175 64.9751 12.7837 64.9751 15.4087C64.9751 18.0337 63.3348 19.6087 60.7011 19.6087C58.0675 19.6087 56.4363 18.0862 56.4363 15.4175V15.4087ZM62.223 15.4087C62.223 13.965 61.6307 13.1162 60.7011 13.1162C59.7716 13.1162 59.234 14 59.234 15.4262C59.234 16.8525 59.8081 17.7012 60.7376 17.7012C61.6671 17.7012 62.223 16.8875 62.223 15.4262V15.4087ZM66.014 9.46748C66.0068 9.20244 66.0818 8.94134 66.2293 8.71726C66.3769 8.49317 66.5904 8.31621 66.8429 8.2088C67.0953 8.10138 67.3752 8.06835 67.6473 8.1139C67.9193 8.15945 68.1711 8.28152 68.3707 8.46463C68.5705 8.64775 68.709 8.88368 68.7689 9.1425C68.8288 9.40133 68.8073 9.67135 68.707 9.91845C68.6069 10.1655 68.4325 10.3784 68.2062 10.5303C67.9799 10.6821 67.7116 10.766 67.4356 10.7712C67.2526 10.7833 67.069 10.7589 66.8963 10.6996C66.7235 10.6402 66.5655 10.5473 66.432 10.4265C66.2985 10.3057 66.1924 10.1597 66.1205 9.99764C66.0485 9.83568 66.0122 9.66111 66.014 9.48498V9.46748ZM66.014 11.3925H68.7478V19.425H66.014V11.3925ZM78.6718 15.4087C78.6718 18.0337 77.4598 19.53 75.382 19.53C74.8493 19.5628 74.3188 19.4378 73.8624 19.1718C73.4061 18.9057 73.0458 18.5115 72.8304 18.0425H72.7757V21.9975H70.0419V11.375H72.7757V12.81H72.8304C73.0358 12.3332 73.3892 11.9288 73.8425 11.6517C74.2958 11.3745 74.827 11.2382 75.3638 11.2612C77.4598 11.2962 78.7082 12.8012 78.7082 15.4262L78.6718 15.4087ZM75.9379 15.4087C75.9379 14.1312 75.3274 13.3175 74.3705 13.3175C73.4136 13.3175 72.8031 14.14 72.794 15.4087C72.7848 16.6775 73.4136 17.4912 74.3705 17.4912C75.3274 17.4912 75.9379 16.695 75.9379 15.4262V15.4087ZM83.3649 11.2087C85.634 11.2087 87.0101 12.2412 87.0739 13.895H84.5861C84.5861 13.3262 84.094 12.9675 83.3376 12.9675C82.5812 12.9675 82.244 13.2475 82.244 13.6587C82.244 14.07 82.5448 14.2012 83.1553 14.3237L84.905 14.665C86.5727 15.0062 87.2835 15.6537 87.2835 16.87C87.2835 18.5325 85.7069 19.6 83.3832 19.6C81.0594 19.6 79.5375 18.5325 79.419 16.8962H82.0527C82.1347 17.4912 82.6268 17.8412 83.4287 17.8412C84.2307 17.8412 84.5952 17.5875 84.5952 17.1675C84.5952 16.7475 84.34 16.66 83.6839 16.5287L82.1073 16.205C80.4761 15.8812 79.6195 15.05 79.6195 13.825C79.6378 12.25 81.1049 11.2262 83.3649 11.2262V11.2087ZM96.4055 19.4075H93.7719V17.9112H93.7172C93.5723 18.4136 93.2533 18.8533 92.8123 19.1573C92.3712 19.4613 91.8354 19.6114 91.2932 19.5825C90.8778 19.6051 90.4622 19.542 90.0745 19.3972C89.6867 19.2523 89.3359 19.0294 89.0456 18.7432C88.7554 18.4571 88.5324 18.1143 88.392 17.7383C88.2514 17.3623 88.1967 16.9618 88.2312 16.5637V11.375H90.9651V15.96C90.9651 16.9137 91.4754 17.4212 92.3229 17.4212C92.5216 17.4216 92.7184 17.3812 92.8998 17.3028C93.0802 17.2243 93.2424 17.1095 93.3736 16.9661C93.5039 16.8227 93.6024 16.6541 93.6598 16.4716C93.7172 16.289 93.7345 16.0967 93.7081 15.9075V11.375H96.4419L96.4055 19.4075ZM97.7269 11.375H100.37V12.9237H100.424C100.569 12.428 100.882 11.9925 101.312 11.6853C101.742 11.3782 102.267 11.2167 102.803 11.2262C103.349 11.1843 103.89 11.341 104.321 11.6653C104.751 11.9896 105.039 12.4575 105.127 12.9762H105.181C105.346 12.452 105.689 11.9956 106.154 11.6788C106.619 11.3619 107.181 11.2027 107.751 11.2262C108.123 11.2142 108.493 11.2775 108.837 11.4119C109.183 11.5462 109.493 11.7488 109.751 12.0062C110.009 12.2637 110.208 12.5704 110.335 12.9063C110.46 13.2422 110.512 13.6 110.485 13.9562V19.425H107.751V14.6562C107.751 13.7812 107.341 13.3787 106.575 13.3787C106.405 13.3773 106.236 13.4111 106.08 13.4778C105.924 13.5445 105.784 13.6425 105.671 13.7652C105.558 13.888 105.474 14.0325 105.424 14.1892C105.373 14.346 105.36 14.5112 105.382 14.6737V19.425H102.785V14.6212C102.785 13.8162 102.374 13.3787 101.627 13.3787C101.455 13.3788 101.284 13.414 101.127 13.482C100.969 13.5501 100.828 13.6494 100.714 13.7734C100.599 13.8973 100.514 14.0433 100.462 14.2016C100.411 14.3598 100.394 14.5266 100.415 14.6912V19.425H97.6813L97.7269 11.375Z" fill="#B4B7C9"/>
<path d="M25.9536 9.29253C25.4899 8.27434 24.8761 7.32547 24.131 6.47503C23.0297 5.18033 21.6553 4.12424 20.0983 3.3763C18.5413 2.62837 16.8369 2.20553 15.0974 2.13561C13.3579 2.06568 11.6228 2.35027 10.006 2.97064C8.38938 3.59101 6.92785 4.5331 5.71768 5.73489C4.50751 6.93668 3.57613 8.37093 2.98483 9.94327C2.39354 11.5156 2.15574 13.1903 2.2871 14.8572C2.41846 16.5241 2.91598 18.1454 3.74693 19.6144C4.57788 21.0834 5.72342 22.3668 7.10814 23.38C7.99665 24.0432 8.97843 24.5823 10.0243 24.9813C11.4905 25.5583 13.0599 25.8554 14.6445 25.8563C17.9155 25.8494 21.0501 24.5974 23.3615 22.3749C25.6727 20.1524 26.9719 17.1408 26.9743 14C26.9766 12.38 26.6292 10.7771 25.9536 9.29253ZM14.6354 4.54127C16.0585 4.54113 17.4643 4.83977 18.7544 5.41627C18.4398 5.54679 18.109 5.63796 17.7702 5.68753C16.6554 5.84248 15.6226 6.33946 14.826 7.1043C14.0295 7.86913 13.5119 8.8608 13.3505 9.93128C13.2797 10.5316 12.9952 11.0901 12.5453 11.5126C12.0954 11.935 11.5076 12.1954 10.8809 12.25C9.766 12.405 8.73321 12.902 7.93666 13.6668C7.14011 14.4317 6.62251 15.4233 6.46112 16.4938C6.40648 17.0646 6.15283 17.6011 5.74121 18.0163C5.03099 16.5754 4.71195 14.9854 4.81376 13.3943C4.91557 11.8032 5.43492 10.2626 6.32349 8.91602C7.21206 7.56947 8.44097 6.4606 9.89586 5.69264C11.3507 4.92468 12.9843 4.52259 14.6445 4.52377L14.6354 4.54127ZM7.09903 20.125C7.20838 20.0288 7.31774 19.9413 7.42709 19.8363C8.23782 19.0816 8.75822 18.0853 8.90338 17.01C8.96223 16.4056 9.24329 15.841 9.6962 15.4175C10.1321 14.982 10.7187 14.7143 11.3456 14.665C12.4605 14.5101 13.4933 14.0131 14.2898 13.2482C15.0864 12.4834 15.604 11.4918 15.7654 10.4213C15.8048 9.78909 16.0873 9.19348 16.5582 8.75003C17.0048 8.3229 17.597 8.06499 18.2259 8.02377C19.2501 7.88847 20.2053 7.45127 20.9597 6.77253C21.8188 7.45684 22.5466 8.28006 23.1104 9.20503C23.0758 9.24992 23.036 9.29104 22.9919 9.32753C22.557 9.76695 21.9711 10.0405 21.3425 10.0975C20.2264 10.2498 19.1921 10.7459 18.395 11.5112C17.598 12.2765 17.0813 13.2697 16.9227 14.3413C16.8585 14.9436 16.5794 15.5062 16.1326 15.9335C15.6858 16.361 15.099 16.6269 14.4714 16.6863C13.3532 16.84 12.3166 17.3361 11.5154 18.1005C10.7143 18.8651 10.1913 19.8574 10.0243 20.93C9.97523 21.3576 9.82223 21.7683 9.57773 22.1288C8.64275 21.5957 7.80536 20.9188 7.09903 20.125ZM14.6354 23.5025C13.7107 23.5035 12.7904 23.3798 11.9015 23.135C12.2056 22.5908 12.4033 21.9976 12.4847 21.385C12.5486 20.784 12.8265 20.2225 13.2714 19.7953C13.7163 19.3682 14.301 19.1014 14.927 19.04C16.0435 18.8868 17.0784 18.3906 17.8768 17.6256C18.675 16.8607 19.194 15.868 19.3559 14.7963C19.4198 14.1952 19.6976 13.6338 20.1425 13.2066C20.5874 12.7794 21.1722 12.5126 21.7981 12.4513C22.6383 12.3464 23.4392 12.046 24.131 11.5763C24.5152 12.9744 24.5607 14.4385 24.2641 15.8562C23.9675 17.2738 23.3365 18.6075 22.4197 19.7547C21.503 20.9019 20.3248 21.8322 18.9753 22.4743C17.626 23.1164 16.1414 23.4532 14.6354 23.4588V23.5025Z" fill="#B4B7C9"/>
</svg>
