<svg width="113" height="30" viewBox="0 0 113 30" fill="none" xmlns="http://www.w3.org/2000/svg">
<path d="M32.967 9.65152H35.715V20.7944H32.967V9.65152ZM36.8108 16.6029C36.8108 13.8429 38.5229 12.1887 41.0911 12.1887C43.6592 12.1887 45.3714 13.8429 45.3714 16.6029C45.3714 19.3629 43.7192 21.0344 41.0911 21.0344C38.463 21.0344 36.8108 19.4229 36.8108 16.6029ZM42.6491 16.6029C42.6491 15.0858 42.0584 14.1944 41.1167 14.1944C40.1751 14.1944 39.593 15.0515 39.593 16.6029C39.593 18.1544 40.1751 19.0029 41.1167 19.0029C42.0584 19.0029 42.6662 18.1544 42.6662 16.6115L42.6491 16.6029ZM46.4671 21.3687H49.1209C49.2417 21.6547 49.4527 21.8934 49.7217 22.0481C49.9907 22.2029 50.3028 22.2653 50.6105 22.2258C51.6634 22.2258 52.2113 21.6601 52.2113 20.8201V19.2772H52.2198C51.9931 19.7577 51.6263 20.158 51.168 20.4258C50.7096 20.6936 50.181 20.8161 49.6517 20.7772C47.6399 20.7772 46.3045 19.2429 46.3045 16.6029C46.3045 13.9629 47.58 12.3172 49.7287 12.3172C50.2715 12.2882 50.8101 12.4283 51.27 12.7185C51.7299 13.0086 52.0887 13.4344 52.2969 13.9372H52.2198V12.3858H54.9421V20.7344C54.9421 22.7487 53.1615 24.0087 50.542 24.0087C48.1621 24.0001 46.6383 22.9115 46.4842 21.3772L46.4671 21.3687ZM52.2198 16.6029C52.2198 15.2572 51.6035 14.4087 50.6276 14.4087C49.6517 14.4087 49.0524 15.2658 49.0524 16.6029C49.0524 17.9401 49.6431 18.7287 50.6276 18.7287C51.612 18.7287 52.2198 18.0001 52.2198 16.6029ZM56.0293 16.6029C56.0293 13.8429 57.7414 12.1887 60.3096 12.1887C62.8778 12.1887 64.5899 13.8429 64.5899 16.6029C64.5899 19.3629 62.9292 21.0344 60.3096 21.0344C57.6901 21.0344 56.0464 19.4229 56.0464 16.6029H56.0293ZM61.8676 16.6029C61.8676 15.0858 61.2684 14.1944 60.3353 14.1944C59.4022 14.1944 58.8115 15.0515 58.8115 16.6029C58.8115 18.1544 59.3936 19.0029 60.3353 19.0029C61.277 19.0029 61.8848 18.1544 61.8848 16.6115L61.8676 16.6029ZM65.7028 10.3544C65.6908 10.0741 65.7629 9.79663 65.9097 9.55775C66.0565 9.31878 66.2714 9.12935 66.5267 9.01372C66.782 8.89801 67.0659 8.86149 67.3421 8.90881C67.6182 8.95603 67.8739 9.08495 68.0763 9.27892C68.2787 9.47298 68.4185 9.72309 68.4777 9.99729C68.5369 10.2715 68.5128 10.5572 68.4086 10.8175C68.3043 11.0779 68.1246 11.3011 67.8926 11.4584C67.6606 11.6157 67.3869 11.6998 67.1067 11.7001C66.9277 11.7046 66.7495 11.6735 66.5826 11.6086C66.4156 11.5437 66.2632 11.4461 66.1342 11.3217C66.0052 11.1974 65.9021 11.0486 65.831 10.8839C65.7599 10.7193 65.7221 10.5423 65.7199 10.3629L65.7028 10.3544ZM65.7028 12.3772H68.485V20.8287H65.7456L65.7028 12.3772ZM78.4923 16.6029C78.4923 19.3544 77.2596 20.9487 75.1623 20.9487C74.6254 20.9818 74.0912 20.8491 73.6319 20.5687C73.1726 20.2881 72.8104 19.8733 72.5941 19.3801H72.5427V23.5458H69.7948V12.4029H72.5256V13.9115H72.577C72.7858 13.4086 73.1445 12.9824 73.6041 12.6909C74.0637 12.3995 74.6018 12.2571 75.1451 12.2829C77.3024 12.2658 78.5437 13.8515 78.5437 16.6115L78.4923 16.6029ZM75.693 16.6029C75.693 15.2658 75.0681 14.4001 74.1008 14.4001C73.1334 14.4001 72.5256 15.2572 72.517 16.6029C72.5085 17.9487 73.1334 18.7972 74.1008 18.7972C75.0681 18.7972 75.7444 18.0001 75.7444 16.6115L75.693 16.6029ZM83.1836 12.1801C85.4864 12.1801 86.916 13.2687 86.9331 15.0172H84.4249C84.4249 14.4087 83.9198 14.0315 83.1664 14.0315C82.4131 14.0315 82.0536 14.3229 82.0536 14.7601C82.0536 15.1972 82.3703 15.3344 83.0038 15.4629L84.7673 15.8229C86.4794 16.1829 87.1642 16.8687 87.1642 18.1458C87.1642 19.8601 85.5805 21.0258 83.2264 21.0258C80.8722 21.0258 79.3398 19.8944 79.2286 18.1715H81.8909C81.968 18.7972 82.4645 19.1658 83.2692 19.1658C84.0739 19.1658 84.4505 18.9087 84.4505 18.4544C84.4505 18.0001 84.1937 17.9229 83.5345 17.7858L81.9423 17.4515C80.2901 17.1001 79.4255 16.2344 79.4255 14.9401C79.4768 13.2601 80.915 12.1887 83.2349 12.1887L83.1836 12.1801ZM96.3669 20.8201H93.7045V19.2344H93.6532C93.5042 19.7633 93.1798 20.2256 92.7329 20.5449C92.2861 20.8644 91.7442 21.0219 91.1963 20.9915C90.7828 21.005 90.3702 20.9307 89.9875 20.7735C89.6049 20.6164 89.259 20.3799 88.9739 20.0797C88.688 19.7793 88.4697 19.422 88.3319 19.0311C88.1941 18.6403 88.1402 18.2246 88.1744 17.8115V12.3858H90.9223V17.2201C90.9223 18.2144 91.4445 18.7544 92.3006 18.7544C92.5018 18.7528 92.6995 18.7082 92.8819 18.6235C93.0642 18.5387 93.226 18.4158 93.3561 18.2631C93.4871 18.1103 93.5838 17.9313 93.6395 17.7381C93.6943 17.5448 93.708 17.3419 93.6789 17.1429V12.3858H96.4183L96.3669 20.8201ZM97.6938 12.3772H100.365V14.0058H100.425C100.572 13.4841 100.889 13.0261 101.323 12.7035C101.759 12.3809 102.289 12.2119 102.83 12.2229C103.374 12.1756 103.916 12.333 104.349 12.6643C104.783 12.9956 105.077 13.477 105.176 14.0144H105.296C105.467 13.4741 105.811 13.0056 106.276 12.6817C106.74 12.3577 107.299 12.1965 107.864 12.2229C108.24 12.2086 108.615 12.2739 108.963 12.4146C109.312 12.5552 109.627 12.768 109.888 13.0391C110.149 13.3101 110.35 13.6334 110.477 13.9875C110.606 14.3417 110.657 14.7189 110.629 15.0944V20.8287H107.864V15.7972C107.864 14.9401 107.461 14.4601 106.682 14.4601C106.509 14.4573 106.338 14.4919 106.18 14.5615C106.022 14.6312 105.881 14.7343 105.766 14.8637C105.652 14.9932 105.566 15.1459 105.516 15.3115C105.466 15.4771 105.452 15.6515 105.475 15.8229V20.8287H102.856V15.7715C102.856 14.9144 102.436 14.4601 101.683 14.4601C101.508 14.4587 101.335 14.4947 101.176 14.5657C101.016 14.6367 100.874 14.7411 100.758 14.8718C100.642 15.0025 100.556 15.1565 100.504 15.3235C100.452 15.4905 100.437 15.6667 100.459 15.8401V20.8287H97.7109L97.6938 12.3772Z" fill="#B4B7C9"/>
<path d="M27.5308 10.3801C27.5309 8.67414 27.0164 7.00791 26.0547 5.59967C25.093 4.19144 23.7289 3.10685 22.1412 2.488C20.5534 1.86913 18.816 1.74485 17.1565 2.13141C15.4969 2.51797 13.9928 3.39737 12.8408 4.6544H2.15723V27.2315H24.7144V16.6801C25.5997 15.8873 26.3082 14.9164 26.7935 13.8308C27.2788 12.7452 27.5301 11.5695 27.5308 10.3801ZM23.1906 10.3801C23.1923 11.1976 22.9518 11.9972 22.4994 12.6778C22.047 13.3583 21.4033 13.8892 20.6494 14.2031C19.8956 14.5172 19.0657 14.6003 18.2647 14.4418C17.4637 14.2834 16.7277 13.8905 16.1498 13.3131C15.5719 12.7356 15.1781 11.9995 15.0182 11.1978C14.8582 10.3962 14.9395 9.56506 15.2515 8.80966C15.5635 8.05422 16.0924 7.40848 16.7711 6.95413C17.4499 6.49979 18.248 6.25727 19.0644 6.25726C20.1573 6.25726 21.2055 6.69136 21.979 7.46429C22.7527 8.23723 23.1884 9.28589 23.1906 10.3801ZM20.3742 22.8858H6.49745V9.00011H10.7264C10.6447 9.45569 10.6017 9.91734 10.598 10.3801C10.6003 12.6277 11.493 14.7826 13.0803 16.3719C14.6675 17.9611 16.8196 18.855 19.0644 18.8573C19.5033 18.8549 19.9413 18.8177 20.3742 18.7458V22.8858Z" fill="#B4B7C9"/>
</svg>
