<svg width="113" height="28" viewBox="0 0 113 28" fill="none" xmlns="http://www.w3.org/2000/svg">
<path d="M13.0288 5.47656V1.97656H1.72876V26.0236H13.0288V22.5236C10.7139 22.5236 8.49392 21.6256 6.85714 20.0271C5.22032 18.4286 4.30077 16.2607 4.30077 14.0001C4.30077 11.7395 5.22032 9.57149 6.85714 7.97305C8.49392 6.37458 10.7139 5.47656 13.0288 5.47656Z" fill="#B4B7C9"/>
<path d="M13.0286 5.47656V22.5236C15.3434 22.5236 17.5634 21.6256 19.2002 20.0271C20.837 18.4286 21.7565 16.2607 21.7565 14.0001C21.7565 11.7395 20.837 9.57149 19.2002 7.97305C17.5634 6.37458 15.3434 5.47656 13.0286 5.47656Z" fill="#B4B7C9"/>
<path d="M28.0981 7.61768H30.628V19.5177H28.0981V7.61768Z" fill="#B4B7C9"/>
<path d="M32.0446 15.4411C32.0446 14.585 32.3049 13.7481 32.7925 13.0366C33.2801 12.325 33.973 11.7709 34.7835 11.4444C35.594 11.1179 36.4854 11.0337 37.3449 11.2026C38.2044 11.3714 38.9932 11.7856 39.6113 12.3927C40.2294 12.9999 40.6491 13.7726 40.8171 14.6129C40.985 15.4532 40.8938 16.3233 40.5548 17.1129C40.2158 17.9024 39.6444 18.576 38.9131 19.048C38.1817 19.5201 37.3232 19.7695 36.4465 19.7646C35.8651 19.7691 35.2885 19.6601 34.7508 19.444C34.213 19.228 33.7247 18.9093 33.3147 18.5067C32.9047 18.104 32.5813 17.6254 32.3631 17.099C32.145 16.5726 32.0367 16.0089 32.0446 15.4411ZM38.3861 15.4411C38.3761 15.072 38.255 14.7139 38.0377 14.4118C37.8205 14.1095 37.5169 13.8766 37.1648 13.742C36.8127 13.6074 36.4278 13.5772 36.0583 13.6552C35.6887 13.7331 35.3508 13.9157 35.087 14.1802C34.8231 14.4446 34.6449 14.7792 34.5748 15.142C34.5046 15.5049 34.5455 15.8798 34.6924 16.22C34.8393 16.5602 35.0856 16.8507 35.4007 17.0548C35.7157 17.2591 36.0853 17.368 36.4634 17.3682C36.7209 17.3731 36.9765 17.3261 37.2145 17.2301C37.4525 17.1341 37.6676 16.9912 37.8465 16.8104C38.0253 16.6295 38.164 16.4145 38.254 16.179C38.344 15.9434 38.3832 15.6922 38.3692 15.4411H38.3861Z" fill="#B4B7C9"/>
<path d="M50.8584 11.3646V19.114C50.8584 21.8481 48.6659 23.0093 46.4481 23.0093C45.6657 23.072 44.8811 22.9202 44.1824 22.571C43.4837 22.2218 42.8986 21.6891 42.493 21.0328L44.6266 19.8305C44.7994 20.1709 45.0744 20.4517 45.4149 20.6356C45.7555 20.8195 46.1452 20.8978 46.5324 20.8599C46.779 20.8895 47.0293 20.8657 47.2654 20.7899C47.5015 20.714 47.7174 20.5883 47.8979 20.4214C48.0785 20.2546 48.2189 20.0509 48.3094 19.8249C48.3999 19.5989 48.4381 19.3561 48.4213 19.114V18.3646C48.1269 18.7132 47.7534 18.9899 47.3304 19.1729C46.9073 19.3559 46.4464 19.44 45.9842 19.4187C44.866 19.4187 43.7936 18.9849 43.0028 18.2127C42.2121 17.4405 41.7678 16.3931 41.7678 15.3011C41.7678 14.209 42.2121 13.1617 43.0028 12.3895C43.7936 11.6173 44.866 11.1834 45.9842 11.1834C46.4464 11.1621 46.9073 11.2463 47.3304 11.4292C47.7534 11.6122 48.1269 11.8889 48.4213 12.2375V11.414L50.8584 11.3646ZM48.4213 15.2764C48.4381 14.8824 48.3339 14.4924 48.122 14.1568C47.9101 13.8211 47.6002 13.555 47.2321 13.3927C46.8641 13.2304 46.4549 13.1793 46.0569 13.246C45.6589 13.3127 45.2904 13.4942 44.9989 13.767C44.7073 14.0398 44.5061 14.3916 44.4209 14.7771C44.3357 15.1626 44.3705 15.5641 44.5209 15.9301C44.6713 16.2961 44.9304 16.6097 45.2648 16.8308C45.5992 17.0518 45.9937 17.1701 46.3975 17.1705C46.661 17.189 46.9255 17.1533 47.1739 17.0659C47.4225 16.9783 47.6495 16.8409 47.8401 16.6624C48.0309 16.4839 48.1812 16.2683 48.2813 16.0296C48.3814 15.7908 48.4291 15.5342 48.4213 15.2764Z" fill="#B4B7C9"/>
<path d="M52.2835 15.4412C52.2835 14.5857 52.5434 13.7495 53.0302 13.0383C53.5171 12.3271 54.209 11.773 55.0184 11.446C55.8279 11.119 56.7185 11.0339 57.5775 11.2014C58.4366 11.3689 59.2254 11.7815 59.8443 12.3869C60.4631 12.9925 60.8841 13.7636 61.0539 14.6028C61.2238 15.442 61.1349 16.3116 60.7986 17.1015C60.4622 17.8914 59.8934 18.566 59.1643 19.0401C58.4351 19.5142 57.5783 19.7664 56.7023 19.7648C56.1198 19.7703 55.5419 19.6621 55.0027 19.4467C54.4635 19.2313 53.9737 18.9129 53.5622 18.5102C53.1506 18.1075 52.8255 17.6286 52.6059 17.1016C52.3864 16.5746 52.2768 16.0101 52.2835 15.4412ZM58.625 15.4412C58.615 15.0718 58.4936 14.7134 58.276 14.411C58.0585 14.1087 57.7543 13.8757 57.4017 13.7414C57.0491 13.6071 56.6638 13.5773 56.2941 13.656C55.9243 13.7345 55.5865 13.918 55.3229 14.1833C55.0594 14.4485 54.8819 14.7839 54.8128 15.1472C54.7435 15.5106 54.7856 15.8858 54.9338 16.2258C55.0819 16.5659 55.3296 16.8557 55.6458 17.059C55.9618 17.2621 56.3323 17.3698 56.7107 17.3683C56.9682 17.3732 57.2239 17.3262 57.4618 17.2302C57.6998 17.1342 57.9149 16.9914 58.0938 16.8105C58.2727 16.6297 58.4114 16.4146 58.5014 16.1791C58.5913 15.9435 58.6306 15.6923 58.6166 15.4412H58.625Z" fill="#B4B7C9"/>
<path d="M62.2935 9.18244C62.2935 8.89255 62.3815 8.6091 62.5464 8.36805C62.7114 8.12697 62.9458 7.93909 63.2201 7.82813C63.4944 7.71719 63.7962 7.68816 64.0874 7.74472C64.3785 7.80128 64.646 7.94089 64.8559 8.1459C65.0658 8.35092 65.2088 8.61214 65.2667 8.89642C65.3246 9.18079 65.2949 9.47553 65.1813 9.74342C65.0677 10.0112 64.8752 10.2402 64.6284 10.4013C64.3816 10.5623 64.0914 10.6483 63.7945 10.6483C63.3977 10.644 63.0185 10.4882 62.738 10.2142C62.4574 9.94025 62.2978 9.56991 62.2935 9.18244ZM62.538 11.3648H65.0679V19.5177H62.538V11.3648Z" fill="#B4B7C9"/>
<path d="M75.8954 15.4411C75.9237 15.9833 75.842 16.5257 75.6549 17.0369C75.4678 17.5482 75.179 18.0182 74.8052 18.42C74.4313 18.8219 73.9798 19.1476 73.4765 19.3783C72.9733 19.6091 72.4283 19.7403 71.8729 19.7646C71.4016 19.7953 70.9293 19.7216 70.4913 19.549C70.0532 19.3764 69.6607 19.1095 69.3431 18.7682V22.7952H66.8132V11.3646H69.3431V12.1305C69.6612 11.7901 70.054 11.5245 70.4921 11.3533C70.9301 11.1821 71.4022 11.11 71.8729 11.1423C72.4261 11.1666 72.9689 11.2971 73.4704 11.5263C73.9719 11.7555 74.4223 12.079 74.7958 12.4781C75.1694 12.8773 75.4587 13.3444 75.6474 13.8528C75.836 14.3612 75.9204 14.9009 75.8954 15.4411ZM73.3655 15.4411C73.3556 15.0586 73.2302 14.6875 73.0052 14.3743C72.7802 14.0611 72.4655 13.8196 72.1006 13.6804C71.7357 13.541 71.3369 13.5101 70.9539 13.5912C70.5711 13.6723 70.2213 13.8621 69.9483 14.1365C69.6753 14.411 69.4914 14.7581 69.4197 15.1342C69.3478 15.5104 69.3912 15.8988 69.5445 16.251C69.6979 16.603 69.9541 16.9031 70.2813 17.1136C70.6085 17.3241 70.992 17.4355 71.3838 17.434C71.6522 17.4452 71.9199 17.4008 72.1694 17.3038C72.419 17.2067 72.6448 17.0593 72.8319 16.8712C73.019 16.683 73.1632 16.4582 73.2552 16.2118C73.3472 15.9654 73.3848 15.7027 73.3655 15.4411Z" fill="#B4B7C9"/>
<path d="M83.5948 17.0717C83.5948 18.9493 81.9082 19.7481 80.1205 19.7481C79.3913 19.8122 78.6592 19.6613 78.0188 19.3148C77.3784 18.9683 76.8591 18.4423 76.5281 17.8046L78.7037 16.6023C78.7899 16.8961 78.9768 17.1521 79.2332 17.3275C79.4895 17.503 79.7998 17.587 80.112 17.5658C80.7108 17.5658 81.0143 17.3846 81.0143 17.0552C81.0143 16.1576 76.9076 16.6352 76.9076 13.8105C76.9076 12.0317 78.4423 11.1423 80.1795 11.1423C80.8398 11.1134 81.4958 11.2597 82.0778 11.5656C82.6598 11.8716 83.1461 12.3258 83.4851 12.8799L81.3095 13.9999C81.2133 13.7874 81.0563 13.6068 80.8573 13.4796C80.6582 13.3524 80.4257 13.2843 80.1879 13.2834C79.7494 13.2834 79.488 13.4481 79.488 13.7364C79.488 14.6752 83.5948 14.0576 83.5948 17.0717Z" fill="#B4B7C9"/>
<path d="M92.7613 11.3647V19.5177H90.2315V18.7518C89.9439 19.0909 89.5788 19.3591 89.1664 19.5351C88.7532 19.7111 88.3037 19.7897 87.8534 19.7647C86.1669 19.7647 84.7249 18.5871 84.7249 16.3883V11.3647H87.2547V16.0177C87.2345 16.2122 87.2581 16.4086 87.3239 16.5934C87.3896 16.7781 87.495 16.9468 87.6333 17.0878C87.7725 17.2287 87.9411 17.3385 88.1275 17.4098C88.3139 17.4809 88.5137 17.5117 88.7136 17.5C89.6243 17.5 90.2652 16.973 90.2652 15.853V11.3647H92.7613Z" fill="#B4B7C9"/>
<path d="M107.097 14.5107V19.5177H104.567V14.7248C104.567 13.9012 104.171 13.3907 103.37 13.3907C102.569 13.3907 102.063 13.9589 102.063 14.9224V19.5177H99.5329V14.7248C99.5329 13.9012 99.1366 13.3907 98.3355 13.3907C97.5344 13.3907 97.0284 13.9589 97.0284 14.9224V19.5177H94.4985V11.3648H97.0284V12.1142C97.2906 11.7831 97.6322 11.5209 98.0243 11.3513C98.4156 11.1816 98.8448 11.1098 99.2715 11.1424C99.6991 11.1206 100.126 11.2079 100.509 11.3956C100.891 11.5833 101.218 11.865 101.456 12.213C101.734 11.8493 102.102 11.5604 102.525 11.3733C102.947 11.186 103.413 11.1066 103.876 11.1424C105.849 11.1424 107.097 12.4765 107.097 14.5107Z" fill="#B4B7C9"/>
<path d="M109.222 11.3154C110.247 11.3154 111.077 10.5042 111.077 9.50366C111.077 8.50307 110.247 7.69189 109.222 7.69189C108.198 7.69189 107.367 8.50307 107.367 9.50366C107.367 10.5042 108.198 11.3154 109.222 11.3154Z" fill="#B4B7C9"/>
</svg>
